<?xml version="1.0" standalone="no"?>
<!DOCTYPE svg PUBLIC "-//W3C//DTD SVG 20010904//EN"
 "http://www.w3.org/TR/2001/REC-SVG-20010904/DTD/svg10.dtd">
<svg version="1.0" xmlns="http://www.w3.org/2000/svg"
 width="1920.000000pt" height="1080.000000pt" viewBox="0 0 1920.000000 1080.000000"
 preserveAspectRatio="xMidYMid meet">

<g transform="translate(0.000000,1080.000000) scale(0.100000,-0.100000)"
fill="#000000" stroke="none">
<path d="M8892 10780 c-28 -23 -26 -55 3 -55 11 0 33 9 49 19 16 11 26 14 22
7 -5 -8 3 -7 24 4 26 13 30 19 19 27 -11 7 -9 8 6 4 11 -3 27 -1 35 4 10 7 -8
10 -60 10 -59 -1 -80 -5 -98 -20z"/>
<path d="M11670 10121 c0 -6 4 -13 10 -16 6 -3 7 1 4 9 -7 18 -14 21 -14 7z"/>
<path d="M8040 9092 c-87 -6 -330 -68 -330 -84 0 -4 -5 -8 -11 -8 -6 0 -39
-29 -75 -65 -54 -56 -64 -71 -65 -103 -1 -20 0 -41 1 -47 1 -5 4 -19 6 -30 9
-51 17 -81 26 -92 5 -7 7 -17 3 -22 -3 -6 3 -28 15 -50 11 -22 20 -45 20 -51
0 -6 8 -27 17 -48 l17 -37 6 155 c5 146 7 159 35 215 16 33 44 75 62 94 18 18
33 37 33 43 0 5 4 7 9 4 5 -3 15 1 22 10 10 12 66 43 89 48 3 1 16 8 29 15 15
8 44 12 76 9 41 -4 52 -2 48 9 -4 9 0 11 13 6 12 -5 15 -3 9 7 -6 10 10 12 84
8 53 -2 86 -1 78 5 -7 5 0 6 19 2 16 -3 40 -2 52 2 20 8 -206 12 -288 5z"/>
<path d="M8568 9073 c12 -2 30 -2 40 0 9 3 -1 5 -23 4 -22 0 -30 -2 -17 -4z"/>
<path d="M8188 9063 c7 -3 16 -2 19 1 4 3 -2 6 -13 5 -11 0 -14 -3 -6 -6z"/>
<path d="M8783 9039 c19 -8 25 -14 18 -22 -6 -9 -1 -12 20 -13 16 -1 29 3 29
7 0 14 15 10 38 -8 11 -10 35 -26 52 -36 21 -11 30 -22 26 -32 -4 -11 2 -15
20 -15 14 0 23 -4 20 -8 -5 -8 28 -42 40 -42 2 0 4 7 2 16 -4 25 19 28 27 5 3
-12 13 -21 21 -21 8 0 17 -7 20 -15 4 -8 17 -15 30 -15 15 0 24 -6 24 -16 0
-10 6 -14 14 -11 7 3 18 1 24 -5 8 -8 15 -8 25 0 16 14 31 4 18 -12 -6 -7 -2
-11 12 -12 12 -1 47 -7 77 -13 141 -30 170 -39 170 -52 0 -5 8 -9 17 -9 9 0
25 -8 35 -17 15 -13 21 -14 27 -5 5 9 12 7 26 -8 10 -11 24 -19 31 -16 8 3 11
-1 7 -11 -5 -12 -1 -14 15 -9 14 5 27 1 41 -13 10 -10 22 -17 24 -14 9 8 177
-76 177 -88 0 -7 3 -9 6 -6 4 4 19 -2 34 -13 16 -11 38 -20 49 -20 12 0 21 -5
21 -11 0 -6 8 -8 19 -4 12 3 21 0 25 -10 3 -8 12 -15 21 -15 21 0 86 -36 78
-44 -3 -3 7 -6 24 -6 16 0 40 -9 53 -20 13 -11 29 -20 36 -20 7 0 17 -7 22
-15 4 -9 19 -17 33 -19 29 -3 79 -26 79 -37 0 -4 14 -10 30 -14 17 -4 28 -11
24 -16 -3 -5 2 -9 11 -9 8 0 21 -11 27 -25 6 -14 19 -25 29 -25 12 0 26 -19
43 -56 27 -58 33 -81 16 -54 -6 9 -10 10 -10 3 0 -7 6 -16 14 -20 18 -10 66
-93 65 -113 0 -8 -11 5 -24 30 -13 25 -24 40 -25 35 0 -6 9 -28 21 -49 23 -44
41 -136 26 -136 -5 0 -6 -11 -3 -24 4 -15 1 -30 -7 -38 -8 -7 -12 -19 -9 -27
3 -8 1 -11 -4 -8 -5 3 -23 -13 -39 -36 -17 -23 -52 -66 -80 -96 l-50 -55 48
38 c26 21 47 41 47 45 0 9 46 53 135 128 44 38 88 78 99 91 11 14 25 21 33 17
10 -3 13 -1 10 9 -6 14 33 58 49 55 21 -4 28 2 14 11 -8 5 -12 12 -9 15 4 3
16 -3 29 -13 l22 -18 -33 -36 c-71 -76 -98 -111 -92 -121 4 -6 1 -7 -7 -2 -18
11 -26 -9 -22 -56 3 -31 7 -38 13 -26 6 9 5 27 -1 44 -10 27 -9 27 6 8 8 -11
14 -32 11 -47 -2 -16 0 -28 4 -28 7 0 17 54 17 97 1 13 7 32 15 43 12 17 16
18 20 6 4 -9 -1 -20 -11 -25 -17 -10 -15 -12 23 -15 14 -1 21 -10 25 -31 l6
-30 7 25 c8 24 9 24 17 5 5 -12 9 -14 9 -6 1 8 -7 24 -16 35 -18 20 -18 20 7
3 14 -9 49 -31 78 -48 28 -17 49 -35 46 -40 -3 -5 -1 -9 5 -9 6 0 8 -7 5 -15
-7 -17 11 -21 21 -5 14 23 24 7 23 -36 -3 -55 18 -77 66 -68 17 3 32 7 35 9 2
2 13 -2 25 -10 11 -8 39 -15 61 -15 38 0 46 -5 98 -64 31 -36 57 -70 57 -77 0
-7 -12 -32 -26 -56 -23 -41 -102 -224 -144 -338 -36 -97 -35 -544 1 -777 6
-37 12 -78 14 -90 6 -52 49 -244 56 -251 4 -5 10 9 14 32 6 39 25 67 25 39 0
-11 2 -11 9 0 4 7 6 24 3 37 -3 16 2 28 17 37 26 16 26 18 2 71 -10 23 -19 65
-20 92 -1 28 -8 76 -15 108 -11 47 -11 61 0 83 8 14 14 32 14 39 0 18 32 28
42 13 5 -9 8 -3 9 17 1 17 1 33 0 38 0 4 4 7 9 7 6 0 10 8 8 18 -2 11 5 18 21
20 18 3 22 0 18 -11 -7 -17 11 -148 21 -159 4 -4 7 32 6 81 l0 87 31 10 c27 9
34 7 49 -14 15 -20 16 -26 5 -33 -7 -4 -11 -9 -9 -11 3 -2 14 -8 25 -14 30
-15 67 -94 61 -126 -3 -16 -1 -28 5 -28 6 0 7 5 4 10 -3 6 -2 10 3 10 9 0 14
-13 62 -142 21 -58 40 -76 40 -39 0 11 -5 23 -10 26 -6 4 -8 11 -5 16 4 5 -9
37 -28 71 -19 35 -42 92 -52 128 -9 36 -22 71 -28 79 -7 8 -12 27 -13 42 -1
25 4 30 42 45 46 17 65 52 22 40 -47 -14 -94 -18 -78 -7 8 5 17 8 22 5 12 -8
86 44 92 64 13 39 -44 122 -83 122 -11 0 -22 4 -26 9 -3 5 -19 12 -35 16 -17
4 -30 11 -30 16 0 5 -3 8 -7 8 -20 -3 -34 2 -28 11 3 6 -2 10 -12 11 -41 2
-88 19 -52 19 12 0 11 2 -1 11 -12 8 -10 9 8 4 12 -3 22 -2 22 3 0 10 107 -13
162 -36 21 -8 45 -23 53 -32 19 -21 45 -111 45 -157 0 -24 4 -31 18 -28 11 1
16 9 14 21 -3 18 -3 18 12 -1 15 -19 15 -19 16 7 0 16 3 27 8 26 4 -1 27 11
51 27 24 17 51 35 59 40 49 32 69 65 41 65 -7 0 0 9 14 21 15 11 26 30 26 42
-1 76 22 138 41 108 7 -12 11 -12 24 -2 13 11 19 11 31 1 10 -8 15 -9 15 -1 0
6 -12 14 -27 17 -42 10 -66 31 -68 56 -1 13 -5 30 -9 39 -4 9 3 30 18 51 13
20 22 39 19 42 -3 3 2 21 11 41 9 19 23 51 32 70 12 26 14 49 9 95 -4 33 -11
60 -15 60 -11 0 -120 -93 -120 -102 0 -4 -6 -8 -13 -8 -7 0 -48 -13 -90 -30
-80 -31 -103 -37 -77 -20 8 5 12 12 8 15 -4 4 -23 -5 -43 -18 -38 -26 -71 -26
-61 -1 6 16 -5 19 -20 5 -14 -13 -64 -23 -64 -12 0 5 15 15 34 21 25 8 34 17
33 31 -2 25 -15 24 -44 -3 -13 -12 -25 -19 -28 -17 -7 7 88 102 118 118 15 8
27 17 27 20 0 15 70 82 79 76 6 -3 11 2 11 12 0 17 27 56 70 98 11 12 20 26
20 32 0 6 9 13 20 16 12 3 20 14 20 26 0 12 7 24 15 27 8 4 15 10 15 16 0 10
34 91 50 120 12 21 13 48 2 48 -10 0 -42 -38 -42 -50 0 -6 -4 -10 -10 -10 -5
0 -10 5 -10 10 0 29 -25 -1 -95 -116 -69 -113 -126 -198 -175 -264 -31 -41
-63 -87 -72 -101 -9 -15 -39 -49 -66 -77 -27 -28 -52 -58 -55 -66 -4 -9 -11
-16 -18 -16 -24 0 -128 -93 -129 -115 0 -6 -14 -26 -30 -45 -32 -36 -28 -25
15 45 14 22 29 49 34 60 5 12 16 27 25 34 9 7 13 17 11 21 -3 5 2 27 11 48 14
38 14 44 -5 107 -12 37 -18 71 -15 76 3 5 0 8 -8 7 -7 -2 -12 5 -12 14 1 10
-2 15 -7 13 -4 -3 -11 1 -16 9 -4 8 -22 29 -38 48 -45 49 -75 94 -75 112 0 9
-6 15 -12 14 -7 -2 -13 5 -13 14 0 19 -12 33 -28 33 -7 0 -19 15 -27 32 -8 18
-21 33 -27 33 -7 0 -13 7 -13 16 0 8 -5 12 -11 9 -11 -7 -99 80 -99 99 0 6
-14 26 -30 45 -17 18 -30 31 -30 27 0 -12 -45 29 -114 104 -15 17 -50 46 -77
64 -27 18 -46 36 -41 41 4 5 1 5 -6 1 -20 -12 -240 133 -224 148 3 4 -1 4 -9
1 -9 -3 -66 23 -140 66 -68 39 -149 83 -179 96 -30 14 -63 30 -73 35 -16 8
-18 7 -12 -12 5 -15 4 -20 -4 -16 -6 4 -11 15 -11 25 0 13 -46 37 -197 101
-502 212 -699 283 -953 344 -159 37 -256 54 -207 35z m1875 -1015 c-4 -3 -12
5 -18 18 -12 22 -12 22 6 6 10 -10 15 -20 12 -24z m302 -56 c0 -6 -7 -7 -16
-4 -9 3 -18 6 -20 6 -3 0 -3 4 1 10 7 11 35 2 35 -12z m-250 -62 c0 -3 -9 3
-20 14 -11 11 -20 25 -20 31 0 7 9 0 20 -14 11 -14 20 -28 20 -31z m-23 -18
c-3 -8 -6 -5 -6 6 -1 11 2 17 5 13 3 -3 4 -12 1 -19z m28 -28 c3 -5 1 -10 -4
-10 -6 0 -11 5 -11 10 0 6 2 10 4 10 3 0 8 -4 11 -10z m929 -569 c-5 -5 -20
-12 -34 -16 -23 -6 -22 -5 5 13 29 19 48 21 29 3z m63 -17 c-3 -3 -12 -4 -19
-1 -8 3 -5 6 6 6 11 1 17 -2 13 -5z m-217 -384 c0 -5 -2 -10 -4 -10 -3 0 -8 5
-11 10 -3 6 -1 10 4 10 6 0 11 -4 11 -10z m495 -90 c3 -5 1 -10 -4 -10 -6 0
-11 5 -11 10 0 6 2 10 4 10 3 0 8 -4 11 -10z"/>
<path d="M8761 9014 c0 -11 3 -14 6 -6 3 7 2 16 -1 19 -3 4 -6 -2 -5 -13z"/>
<path d="M8860 8996 c0 -2 7 -9 15 -16 13 -11 14 -10 9 4 -5 14 -24 23 -24 12z"/>
<path d="M8916 8957 c3 -10 9 -15 12 -12 3 3 0 11 -7 18 -10 9 -11 8 -5 -6z"/>
<path d="M7517 8877 c-14 -19 -33 -58 -43 -87 -15 -46 -16 -62 -5 -134 14 -87
64 -223 112 -297 16 -25 29 -53 29 -61 0 -8 9 -25 19 -37 l20 -22 3 28 c2 19
8 28 20 27 10 -1 15 2 12 7 -3 5 -11 9 -18 9 -8 0 -11 11 -8 33 3 25 -6 47
-39 97 -38 59 -75 143 -82 187 -1 10 -6 24 -10 30 -8 12 -19 105 -18 147 0 25
22 79 35 88 6 4 8 10 5 13 -4 3 -18 -10 -32 -28z"/>
<path d="M9940 8816 c0 -2 7 -6 15 -10 8 -3 15 -1 15 4 0 6 -7 10 -15 10 -8 0
-15 -2 -15 -4z"/>
<path d="M10085 8750 c3 -5 8 -10 11 -10 2 0 4 5 4 10 0 6 -5 10 -11 10 -5 0
-7 -4 -4 -10z"/>
<path d="M9155 8433 c-11 -3 -26 -10 -32 -15 -7 -6 -23 -8 -36 -4 -19 4 -25 0
-34 -24 -8 -20 -16 -28 -26 -24 -8 3 -18 1 -21 -4 -3 -6 -25 -8 -49 -6 -23 2
-33 1 -22 -2 36 -10 35 -19 -2 -21 -21 -1 -40 -8 -45 -17 -6 -11 -17 -14 -37
-10 -21 4 -30 1 -34 -11 -4 -9 -11 -14 -16 -11 -4 3 -16 -3 -26 -14 -20 -22
-45 -26 -45 -7 0 9 -3 8 -9 -2 -5 -7 -6 -22 -3 -33 3 -15 1 -19 -9 -16 -16 5
-38 -19 -38 -42 0 -11 3 -10 14 4 8 11 15 15 15 9 0 -6 -7 -17 -17 -24 -13
-11 -17 -11 -20 -1 -9 24 -20 11 -18 -22 0 -28 -2 -33 -13 -24 -11 9 -11 7 -1
-14 9 -22 20 -27 70 -32 32 -4 59 -11 59 -16 0 -6 -7 -10 -16 -10 -8 0 -12 -5
-8 -11 3 -6 2 -14 -4 -18 -6 -3 -14 -19 -18 -35 -6 -23 -4 -27 7 -20 10 6 9 0
-3 -18 -13 -20 -14 -28 -5 -31 8 -3 6 -10 -8 -21 -18 -13 -18 -15 -3 -16 25 0
12 -28 -15 -33 -17 -3 -16 -5 7 -6 24 -1 27 -3 16 -16 -10 -12 -10 -15 3 -15
11 0 14 -6 11 -15 -5 -11 -2 -14 12 -9 16 6 15 2 -5 -19 -14 -15 -20 -27 -15
-27 5 0 34 -4 64 -9 30 -5 95 -12 143 -16 80 -6 87 -5 87 12 1 16 2 16 13 -3
10 -18 23 -21 82 -23 38 -1 73 -4 76 -7 4 -2 9 2 12 8 3 10 7 10 18 2 8 -6 46
-14 84 -18 188 -16 228 -18 222 -10 -3 5 16 10 41 12 28 2 50 9 55 18 5 8 13
11 19 8 7 -5 9 -1 5 9 -5 12 1 19 18 23 16 4 25 13 25 25 0 10 7 19 15 19 24
0 65 22 65 35 0 7 8 15 18 19 19 6 50 25 69 43 7 6 18 14 25 16 10 4 9 8 -2
16 -13 10 -13 11 0 11 8 0 26 10 40 21 14 11 19 18 13 14 -19 -9 -16 6 3 20
14 10 13 13 -15 25 -18 7 -30 18 -27 25 5 13 -46 65 -63 65 -5 0 -11 4 -13 8
-11 28 -185 80 -284 85 -33 2 -65 7 -71 10 -7 4 -14 4 -17 -1 -8 -13 53 -45
75 -39 10 3 17 1 14 -3 -3 -5 3 -11 12 -13 17 -4 17 -5 1 -6 -10 0 -18 -6 -18
-12 0 -11 15 -9 50 5 19 7 54 -19 45 -34 -5 -8 -37 -10 -96 -8 -77 3 -89 5
-89 21 0 12 9 17 33 18 l32 1 -27 11 c-16 6 -28 13 -28 16 0 3 -28 4 -62 3
-42 -3 -57 -7 -47 -13 10 -7 4 -9 -21 -8 -39 3 -80 -8 -80 -21 0 -14 22 -18
78 -12 44 4 52 2 52 -12 0 -9 -5 -16 -10 -16 -19 0 -215 -30 -272 -41 -45 -9
-61 -9 -73 1 -15 12 -16 35 -2 58 5 7 3 12 -5 12 -7 1 -2 7 12 15 14 8 21 15
15 16 -5 1 4 4 20 8 17 4 29 12 28 19 -2 7 9 12 25 12 30 0 88 39 62 41 -8 1
-28 3 -44 5 -15 1 -39 -4 -52 -13 -23 -14 -24 -14 -17 2 4 13 3 16 -5 11 -8
-5 -10 -2 -6 8 3 9 10 13 15 10 12 -7 50 6 44 15 -2 5 7 6 20 3 14 -2 25 0 25
6 0 12 64 25 130 27 25 1 56 2 70 4 23 2 24 3 5 11 -13 6 -3 7 28 3 34 -4 47
-2 47 7 0 9 9 10 33 5 17 -4 48 -8 67 -10 19 -2 56 -6 81 -10 28 -5 54 -3 65
4 17 9 17 10 2 11 -10 0 -23 9 -30 19 -9 15 -16 17 -29 10 -12 -6 -20 -5 -25
3 -5 7 -3 8 6 3 9 -5 11 -4 6 3 -4 7 -16 17 -28 23 -16 9 -19 8 -12 -3 14 -22
13 -37 -2 -31 -8 3 -12 9 -9 13 3 5 1 11 -4 14 -16 10 -23 -14 -9 -31 12 -15
11 -15 -10 -4 -12 7 -20 16 -17 21 3 5 -13 7 -35 5 -22 -2 -42 1 -45 6 -3 5 1
6 9 3 29 -11 16 4 -28 34 -32 22 -52 29 -80 26 -21 -2 -36 1 -36 8 0 7 -4 7
-13 -1 -9 -7 -24 -8 -48 -1 -36 10 -42 11 -74 3z m180 -33 c3 -5 2 -10 -4 -10
-5 0 -13 5 -16 10 -3 6 -2 10 4 10 5 0 13 -4 16 -10z m-230 -10 c3 -5 1 -10
-4 -10 -6 0 -11 5 -11 10 0 6 2 10 4 10 3 0 8 -4 11 -10z m209 -26 c3 -8 2
-12 -4 -9 -5 3 -25 2 -44 -4 -25 -6 -45 -5 -73 5 -38 13 -37 13 25 7 43 -4 62
-2 62 6 0 17 27 13 34 -5z m-644 -245 c0 -6 -4 -7 -10 -4 -5 3 -10 11 -10 16
0 6 5 7 10 4 6 -3 10 -11 10 -16z m720 -39 c0 -5 -5 -10 -11 -10 -5 0 -7 5 -4
10 3 6 8 10 11 10 2 0 4 -4 4 -10z m225 -30 c18 -8 17 -9 -7 -9 -15 -1 -30 4
-33 9 -7 12 12 12 40 0z m-377 -27 c12 -3 22 -10 22 -15 0 -5 6 -6 13 -2 6 4
4 -2 -6 -13 -9 -11 -14 -22 -11 -26 7 -7 -41 -16 -116 -21 -30 -2 -65 -7 -76
-11 -42 -13 -19 51 26 75 32 17 91 29 110 23 8 -3 25 -8 38 -10z m312 2 c0 -8
-5 -15 -11 -15 -5 0 -8 4 -5 9 4 5 0 12 -6 14 -8 3 -6 6 5 6 9 1 17 -6 17 -14z
m-220 -245 c0 -5 -9 -10 -19 -10 -11 0 -28 -3 -38 -6 -10 -3 -7 2 7 10 29 18
50 20 50 6z m-144 -18 c-10 -2 -22 0 -28 6 -6 6 0 7 19 4 21 -5 23 -7 9 -10z"/>
<path d="M9390 8434 c0 -16 57 -54 80 -54 18 0 21 -3 11 -9 -10 -7 -7 -9 12
-8 l26 2 -21 23 c-15 15 -25 19 -32 12 -13 -13 -29 -13 -21 -1 3 5 -5 17 -17
25 -24 17 -38 20 -38 10z"/>
<path d="M7700 8328 c0 -5 25 -8 55 -6 72 4 72 18 0 16 -30 -1 -55 -5 -55 -10z"/>
<path d="M10652 8304 c10 -10 20 -15 24 -12 3 4 -5 12 -18 18 -22 12 -22 12
-6 -6z"/>
<path d="M7705 8299 c-12 -18 1 -20 36 -5 l34 15 -32 1 c-17 0 -35 -5 -38 -11z"/>
<path d="M7800 8290 c0 -5 -18 -15 -40 -21 -22 -7 -37 -16 -33 -20 4 -4 43
-19 86 -33 86 -29 136 -52 193 -91 20 -13 40 -22 45 -19 5 3 21 -4 35 -15 15
-12 38 -21 53 -20 24 1 24 1 -6 10 -18 5 -33 12 -33 15 0 3 8 3 18 0 13 -4 19
-1 19 9 0 8 -7 15 -16 15 -14 0 -14 2 -1 11 11 8 8 9 -15 5 -20 -5 -25 -3 -16
3 18 12 7 28 -32 46 l-32 14 30 -4 30 -5 -27 11 c-16 6 -28 14 -28 18 0 5 -24
16 -52 25 -29 9 -64 24 -78 32 l-25 15 25 -6 25 -5 -23 12 c-18 9 -28 9 -43 0
-11 -7 -19 -8 -19 -2 0 5 -9 10 -20 10 -11 0 -20 -4 -20 -10z m-23 -36 c-3 -3
-12 -4 -19 -1 -8 3 -5 6 6 6 11 1 17 -2 13 -5z m228 -33 c3 -6 -4 -8 -16 -6
-30 6 -37 15 -11 15 11 0 23 -4 27 -9z"/>
<path d="M10750 8241 c0 -5 7 -12 16 -15 14 -5 15 -4 4 9 -14 17 -20 19 -20 6z"/>
<path d="M9345 8190 c3 -5 8 -10 11 -10 2 0 4 5 4 10 0 6 -5 10 -11 10 -5 0
-7 -4 -4 -10z"/>
<path d="M9385 8180 c-3 -5 -1 -10 4 -10 6 0 11 5 11 10 0 6 -2 10 -4 10 -3 0
-8 -4 -11 -10z"/>
<path d="M8596 8145 c4 -8 11 -15 16 -15 6 0 5 6 -2 15 -7 8 -14 15 -16 15 -2
0 -1 -7 2 -15z"/>
<path d="M8060 7945 c-9 -10 -9 -15 -1 -15 6 0 11 5 11 12 0 6 3 8 6 5 11 -11
-16 -36 -32 -30 -9 3 -14 -2 -15 -13 0 -18 -1 -17 -9 1 -5 11 -9 15 -9 9 -2
-21 -57 -35 -122 -32 -56 3 -65 1 -75 -17 -7 -13 -19 -19 -37 -18 -19 1 -25
-2 -21 -10 5 -8 3 -8 -7 1 -16 14 -33 16 -24 2 3 -5 0 -10 -7 -10 -10 0 -9 -3
2 -11 12 -8 9 -9 -12 -5 -74 16 -84 17 -63 7 11 -5 16 -10 11 -10 -5 -1 4 -11
19 -22 37 -30 119 -32 158 -4 21 15 32 17 45 9 9 -6 17 -17 17 -25 0 -8 4 -19
8 -26 4 -6 1 -13 -5 -16 -8 -2 -1 -10 15 -17 16 -8 26 -19 23 -27 -3 -7 1 -13
8 -13 8 0 16 -6 19 -12 3 -10 26 -6 90 15 48 15 89 32 92 37 3 5 -13 3 -35 -5
-41 -15 -122 -16 -113 -2 2 4 -1 7 -6 7 -6 0 -11 5 -11 11 0 6 6 9 13 6 8 -3
43 -2 78 3 36 4 72 3 82 -2 11 -6 17 -5 17 2 0 6 12 10 28 9 48 -4 111 12 105
27 -3 8 -18 14 -34 14 -33 0 -38 14 -11 29 15 9 15 10 1 11 -18 0 -33 26 -23
41 3 5 0 9 -6 9 -6 0 -8 5 -5 10 3 6 -4 10 -16 10 -12 0 -19 3 -16 7 7 6 -94
63 -112 63 -5 0 -14 -7 -21 -15z m31 -28 c-10 -9 -11 -8 -5 6 3 10 9 15 12 12
3 -3 0 -11 -7 -18z m-384 -123 c-3 -3 -12 -4 -19 -1 -8 3 -5 6 6 6 11 1 17 -2
13 -5z m238 -12 c-2 -3 0 -11 6 -19 9 -10 7 -13 -6 -13 -10 0 -15 3 -12 7 4 3
0 14 -9 24 -15 16 -14 17 5 12 12 -3 19 -8 16 -11z"/>
<path d="M13950 7850 c0 -5 5 -10 11 -10 5 0 7 5 4 10 -3 6 -8 10 -11 10 -2 0
-4 -4 -4 -10z"/>
<path d="M13915 7830 c3 -5 8 -10 11 -10 2 0 4 5 4 10 0 6 -5 10 -11 10 -5 0
-7 -4 -4 -10z"/>
<path d="M11250 7771 c0 -5 5 -13 10 -16 6 -3 10 -2 10 4 0 5 -4 13 -10 16 -5
3 -10 2 -10 -4z"/>
<path d="M10851 7753 c7 -12 15 -20 18 -17 3 2 -3 12 -13 22 -17 16 -18 16 -5
-5z"/>
<path d="M14332 7735 c-74 -39 -189 -152 -173 -168 7 -7 16 -5 29 6 10 9 28
17 39 17 27 0 56 34 49 57 -5 15 7 25 57 52 34 19 64 37 67 41 3 4 14 12 25
18 19 11 19 11 -5 11 -14 0 -53 -15 -88 -34z"/>
<path d="M7688 7753 c6 -2 18 -2 25 0 6 3 1 5 -13 5 -14 0 -19 -2 -12 -5z"/>
<path d="M14227 7726 c-77 -47 -132 -114 -129 -157 2 -19 -5 -33 -19 -43 -12
-8 -30 -28 -40 -45 -10 -17 -24 -31 -32 -31 -7 0 -28 -9 -48 -19 -37 -20 -121
-23 -181 -6 -37 10 -37 -9 0 -43 15 -15 36 -49 46 -77 10 -27 22 -59 27 -70 6
-11 11 -32 13 -47 1 -15 8 -34 15 -42 7 -8 10 -20 6 -26 -4 -6 -1 -17 5 -26 8
-9 11 -31 8 -59 -3 -25 -2 -45 2 -45 4 0 31 -15 59 -34 27 -19 69 -37 91 -41
25 -4 39 -12 37 -18 -3 -7 -11 -11 -18 -9 -20 4 31 -35 64 -49 25 -11 30 -9
45 12 21 30 20 25 26 194 2 81 9 152 17 168 11 24 79 79 112 90 6 2 7 9 3 15
-9 14 -53 6 -77 -14 -8 -8 -23 -14 -32 -14 -9 0 -17 -4 -17 -9 0 -5 -17 -8
-37 -7 -38 2 -38 2 -55 66 -14 49 -15 72 -8 94 15 42 13 47 -15 40 -35 -9 -33
19 4 45 18 13 31 33 35 55 7 35 100 146 123 146 15 0 26 17 15 23 -4 3 -24 -5
-45 -17z"/>
<path d="M7867 7727 c-3 -8 -1 -20 4 -28 6 -10 9 -7 9 14 0 29 -5 35 -13 14z"/>
<path d="M10764 7720 c2 -14 5 -56 5 -94 1 -38 4 -67 7 -63 11 10 6 159 -6
171 -8 8 -9 4 -6 -14z"/>
<path d="M7896 7684 c-5 -14 -4 -15 9 -4 17 14 19 20 6 20 -5 0 -12 -7 -15
-16z"/>
<path d="M14350 7667 c-34 -18 -43 -29 -55 -71 -8 -27 -15 -55 -15 -62 0 -6
-13 -17 -30 -24 -39 -16 -128 -138 -113 -154 9 -9 25 -7 19 2 -10 17 117 132
147 132 32 0 187 116 187 140 0 11 -74 -14 -107 -35 -24 -16 -53 -20 -53 -7 1
4 26 26 56 48 51 39 53 42 30 46 -15 3 -43 -4 -66 -15z"/>
<path d="M9648 7653 c6 -2 18 -2 25 0 6 3 1 5 -13 5 -14 0 -19 -2 -12 -5z"/>
<path d="M10807 7626 c-4 -15 -6 -31 -2 -34 10 -10 16 6 13 35 l-3 28 -8 -29z"/>
<path d="M14705 7620 c-8 -13 -1 -24 14 -19 6 3 7 10 2 18 -6 10 -10 10 -16 1z"/>
<path d="M14682 7573 c-6 -10 -16 -14 -26 -10 -32 13 -32 12 -35 -47 -1 -21
-5 -27 -16 -22 -8 3 -21 8 -28 11 -10 4 -13 -8 -13 -47 1 -34 -7 -69 -20 -98
-12 -25 -24 -57 -28 -72 -11 -46 -41 -29 -48 27 -3 26 -7 30 -33 31 -16 0 -36
-1 -43 -4 -16 -5 -42 -55 -42 -78 0 -10 -7 -26 -16 -36 -15 -16 -15 -18 -1
-24 12 -4 15 -14 10 -37 -3 -18 -10 -38 -16 -44 -5 -7 -6 -13 -2 -13 5 0 0
-10 -11 -21 l-19 -22 45 7 c41 5 43 5 26 -9 -11 -8 -24 -15 -29 -15 -12 0 -40
-30 -34 -36 3 -3 20 -6 38 -7 43 -3 48 -23 10 -44 -62 -35 -33 -35 133 4 74
17 157 57 134 65 -7 3 -10 8 -7 12 8 9 114 26 161 26 48 0 56 17 52 102 -3 52
0 70 12 83 15 14 18 14 33 0 28 -25 44 -19 37 13 -4 15 -10 53 -13 85 -3 36
-10 56 -17 54 -6 -2 -25 -30 -41 -63 -27 -53 -33 -59 -58 -56 -22 3 -28 0 -25
-14 2 -9 -3 -19 -10 -22 -10 -3 -13 4 -10 24 3 29 3 29 -49 26 -32 -1 -53 2
-53 8 0 5 8 10 18 10 14 0 15 2 2 10 -12 8 -11 10 7 10 17 0 26 12 42 55 11
30 18 62 14 71 -3 9 0 19 7 24 9 5 6 13 -11 29 -20 18 -22 25 -11 41 14 24 15
30 2 30 -5 0 -13 -7 -18 -17z m28 -368 c0 -23 -23 -55 -40 -55 -4 0 -13 -13
-19 -30 -7 -20 -17 -30 -30 -30 -28 0 -27 25 3 55 16 16 22 31 19 45 -7 28 12
48 42 42 18 -3 25 -11 25 -27z m-200 -30 c-30 -32 -38 -25 -9 9 12 14 25 24
27 21 3 -3 -5 -16 -18 -30z m-48 -47 c-7 -7 -12 -8 -12 -2 0 14 12 26 19 19 2
-3 -1 -11 -7 -17z"/>
<path d="M12041 7564 c0 -11 3 -14 6 -6 3 7 2 16 -1 19 -3 4 -6 -2 -5 -13z"/>
<path d="M12103 7558 c-27 -30 -46 -68 -34 -68 18 0 50 36 57 63 8 33 4 34
-23 5z"/>
<path d="M12021 7534 c0 -11 3 -14 6 -6 3 7 2 16 -1 19 -3 4 -6 -2 -5 -13z"/>
<path d="M11986 7508 c-21 -24 -46 -68 -46 -80 0 -5 5 -8 10 -8 6 0 10 9 10
20 0 11 6 23 14 26 8 3 19 19 25 35 12 35 11 35 -13 7z"/>
<path d="M14390 7510 c0 -5 -6 -10 -13 -10 -16 0 -93 -77 -85 -86 9 -8 100 36
115 55 17 22 16 51 -2 51 -8 0 -15 -4 -15 -10z"/>
<path d="M11883 7486 c-26 -22 -60 -102 -49 -113 6 -6 51 22 52 32 1 21 17 70
27 83 19 24 -1 23 -30 -2z"/>
<path d="M11626 7458 c-23 -39 -27 -64 -7 -42 11 11 42 84 36 84 -2 0 -15 -19
-29 -42z"/>
<path d="M14350 7401 c0 -26 17 -36 35 -21 8 6 23 9 35 5 11 -3 20 -3 20 1 0
14 -36 33 -62 34 -21 0 -28 -5 -28 -19z"/>
<path d="M11046 7391 c-16 -25 -18 -125 -6 -218 l14 -98 20 47 c19 42 24 46
46 41 24 -6 24 -5 8 13 -9 10 -20 33 -24 49 -4 17 -10 35 -14 40 -4 6 -11 33
-15 60 -7 58 -19 83 -29 66z"/>
<path d="M11577 7361 c-3 -13 -1 -18 9 -14 7 2 10 11 7 19 -7 19 -10 18 -16
-5z"/>
<path d="M11765 7360 c-16 -7 -17 -9 -3 -9 9 -1 20 4 23 9 7 11 7 11 -20 0z"/>
<path d="M12161 7294 c0 -11 3 -14 6 -6 3 7 2 16 -1 19 -3 4 -6 -2 -5 -13z"/>
<path d="M14821 7037 c-15 -15 -14 -24 2 -30 7 -3 19 3 25 13 8 14 8 19 -2 23
-8 3 -19 0 -25 -6z"/>
<path d="M14696 7003 c-11 -13 -26 -23 -34 -23 -8 0 -22 -8 -31 -19 -9 -10
-25 -20 -36 -23 -16 -3 -20 -11 -19 -40 1 -39 21 -98 34 -98 4 0 12 18 19 40
6 22 16 40 21 40 6 0 13 0 18 0 7 0 8 -4 11 -35 0 -8 11 -15 22 -15 12 0 39
-5 60 -12 49 -14 56 -7 36 34 -8 18 -21 65 -27 105 -10 64 -14 71 -33 70 -12
-1 -30 -12 -41 -24z m23 -94 c-26 -23 -33 -24 -26 -5 3 7 0 19 -6 25 -9 10 -8
16 7 27 17 12 21 11 34 -7 12 -18 12 -22 -9 -40z"/>
<path d="M12183 6976 c5 -11 0 -13 -24 -6 -18 6 -29 5 -29 -2 0 -5 10 -12 22
-16 12 -3 46 -18 76 -33 29 -14 62 -24 73 -22 20 6 26 23 8 23 -6 0 -30 13
-53 28 -54 37 -80 47 -73 28z"/>
<path d="M14950 6861 c0 -5 5 -13 10 -16 6 -3 10 -2 10 4 0 5 -4 13 -10 16 -5
3 -10 2 -10 -4z"/>
<path d="M14387 6817 c-16 -20 -16 -22 -2 -25 26 -6 45 6 45 28 0 26 -21 25
-43 -3z"/>
<path d="M14666 6802 c-7 -12 49 -62 71 -62 8 0 28 -9 43 -20 l29 -21 11 21
c6 11 19 20 30 20 22 0 36 -16 19 -22 -8 -3 -5 -10 6 -21 24 -25 39 -16 43 24
3 34 3 35 -40 35 -24 0 -58 6 -75 12 -35 13 -87 30 -114 39 -9 2 -20 0 -23 -5z"/>
<path d="M14348 6703 c6 -2 18 -2 25 0 6 3 1 5 -13 5 -14 0 -19 -2 -12 -5z"/>
<path d="M14106 6639 c-33 -121 -28 -193 7 -86 18 56 25 122 15 133 -4 3 -13
-18 -22 -47z"/>
<path d="M14511 6676 c-6 -7 -39 -19 -72 -25 -79 -16 -67 -30 37 -42 57 -7 90
-7 127 3 44 11 50 10 62 -5 7 -9 15 -17 19 -17 4 0 17 -12 30 -27 20 -23 26
-25 40 -14 13 11 17 9 26 -14 10 -27 11 -27 30 -10 20 18 21 18 41 -3 29 -32
51 -29 43 6 -4 15 -13 37 -20 49 -21 34 -153 90 -240 103 -98 13 -109 13 -123
-4z"/>
<path d="M14322 6583 c27 -9 51 -13 55 -10 12 12 -5 19 -54 23 l-48 4 47 -17z"/>
<path d="M14630 6590 c0 -5 4 -10 9 -10 6 0 13 5 16 10 3 6 -1 10 -9 10 -9 0
-16 -4 -16 -10z"/>
<path d="M14425 6570 c3 -5 15 -10 26 -10 11 0 17 5 14 10 -3 6 -15 10 -26 10
-11 0 -17 -4 -14 -10z"/>
<path d="M14950 6540 c0 -5 5 -10 10 -10 6 0 10 5 10 10 0 6 -4 10 -10 10 -5
0 -10 -4 -10 -10z"/>
<path d="M14160 6531 c0 -14 117 -57 204 -75 92 -19 159 -20 189 -5 16 9 22 9
25 0 2 -7 16 -9 37 -5 23 4 41 1 57 -10 15 -11 18 -16 8 -17 -151 -7 -235 -5
-293 7 -69 15 -87 13 -87 -9 0 -18 77 -61 140 -80 30 -8 82 -24 115 -33 61
-18 295 -27 295 -12 0 4 -16 18 -34 30 -53 35 -58 96 -6 68 16 -9 25 -9 36 1
13 10 20 7 45 -22 32 -38 35 -33 15 25 l-14 40 -50 -3 c-39 -2 -59 3 -89 22
-84 52 -113 58 -337 64 -116 3 -219 9 -228 14 -21 11 -28 11 -28 0z"/>
<path d="M14320 6336 c0 -8 4 -16 8 -18 4 -1 18 -20 31 -40 12 -21 29 -38 37
-38 7 0 32 -28 54 -62 35 -56 40 -60 40 -35 0 34 -39 113 -73 147 -54 56 -97
76 -97 46z"/>
<path d="M11702 6265 c0 -16 2 -22 5 -12 2 9 2 23 0 30 -3 6 -5 -1 -5 -18z"/>
<path d="M14560 6264 c0 -19 16 -33 45 -40 17 -4 57 -19 90 -35 l61 -27 79 15
c44 8 92 13 108 10 17 -2 26 1 24 7 -2 6 -46 14 -103 17 -84 6 -234 34 -289
55 -8 4 -15 2 -15 -2z"/>
<path d="M14096 6225 c-8 -40 1 -65 15 -44 11 18 11 66 0 73 -5 3 -12 -10 -15
-29z"/>
<path d="M11615 6190 c3 -5 10 -10 16 -10 5 0 9 5 9 10 0 6 -7 10 -16 10 -8 0
-12 -4 -9 -10z"/>
<path d="M14520 6183 c0 -10 6 -30 14 -44 7 -14 16 -37 20 -52 4 -18 15 -29
34 -33 40 -10 44 -14 31 -30 -6 -8 -9 -17 -6 -21 4 -3 2 -12 -4 -19 -12 -15 5
-29 26 -20 8 3 42 0 75 -6 50 -8 63 -15 77 -39 18 -31 29 -35 53 -19 13 8 12
13 -5 42 -28 48 -42 60 -64 53 -13 -4 -27 1 -40 14 -24 24 -39 28 -21 6 10
-13 9 -15 -8 -15 -29 0 -37 19 -16 35 18 14 15 19 -47 78 -85 83 -119 103
-119 70z m135 -143 c3 -5 1 -10 -4 -10 -6 0 -11 5 -11 10 0 6 2 10 4 10 3 0 8
-4 11 -10z m160 -100 c3 -5 1 -10 -4 -10 -6 0 -11 5 -11 10 0 6 2 10 4 10 3 0
8 -4 11 -10z"/>
<path d="M14840 5871 c0 -5 9 -11 21 -14 16 -4 18 -3 8 9 -13 16 -29 19 -29 5z"/>
<path d="M14640 5810 c0 -6 7 -10 15 -10 8 0 15 2 15 4 0 2 -7 6 -15 10 -8 3
-15 1 -15 -4z"/>
<path d="M14704 5808 c-4 -7 -3 -8 4 -4 7 4 12 1 12 -8 0 -17 15 -22 24 -8 2
4 -4 13 -14 20 -14 9 -21 9 -26 0z"/>
<path d="M14835 5760 c-3 -5 1 -10 10 -10 9 0 13 5 10 10 -3 6 -8 10 -10 10
-2 0 -7 -4 -10 -10z"/>
<path d="M14675 5699 c-9 -13 -14 -9 80 -53 44 -20 92 -44 107 -52 14 -7 35
-14 47 -14 11 0 24 -6 28 -12 10 -15 61 -52 86 -61 9 -3 17 -11 17 -16 0 -5
14 -14 30 -20 39 -13 39 3 -1 19 -16 7 -28 18 -25 25 7 19 -81 99 -149 136
-33 17 -91 38 -130 45 -84 17 -82 17 -90 3z"/>
<path d="M11441 5663 c18 -49 98 -197 133 -248 19 -27 52 -79 73 -115 36 -62
38 -69 38 -155 0 -49 -3 -107 -7 -127 -6 -36 -6 -37 18 -28 24 9 24 9 25 -48
0 -31 3 -75 7 -97 4 -22 6 -112 6 -200 -1 -152 -4 -172 -53 -410 -29 -137 -84
-378 -122 -535 -89 -363 -111 -454 -149 -620 -55 -239 -90 -356 -190 -625
-380 -1025 -479 -1281 -567 -1475 -14 -30 -42 -93 -63 -140 -21 -47 -61 -134
-90 -195 -106 -224 -181 -393 -236 -538 -38 -99 -39 -107 -21 -107 7 0 23 30
36 68 34 95 128 313 204 472 115 242 148 313 194 420 25 58 53 123 63 145 19
43 145 358 174 438 10 26 22 47 27 47 14 0 11 -25 -7 -67 -20 -45 -17 -39 -93
-228 -60 -150 -143 -352 -160 -390 -5 -11 -49 -103 -96 -205 -101 -214 -210
-463 -265 -602 l-38 -98 81 0 82 0 42 103 c22 56 46 103 52 103 6 1 17 2 24 3
7 1 6 5 -5 12 -20 11 -13 39 9 39 8 0 11 5 8 11 -11 16 4 61 17 53 6 -4 8 -3
4 4 -3 6 27 80 69 165 41 85 75 157 75 161 0 4 25 59 55 121 30 63 55 121 55
128 0 7 4 17 9 22 12 14 184 451 278 705 115 314 310 861 338 951 49 153 77
260 171 648 235 962 295 1260 309 1546 20 381 -74 606 -332 803 -44 35 -173
112 -185 112 -4 0 -3 -12 3 -27z m-210 -3619 c-80 -251 -293 -818 -268 -709 3
11 39 117 82 235 42 118 94 267 115 330 41 122 79 214 86 208 2 -2 -5 -31 -15
-64z m-250 -341 c-8 -15 -10 -15 -11 -2 0 17 10 32 18 25 2 -3 -1 -13 -7 -23z
m-15 -71 c-11 -10 -15 4 -8 28 l7 25 3 -23 c2 -13 1 -26 -2 -30z m-11 -22 c3
-5 1 -10 -4 -10 -6 0 -11 5 -11 10 0 6 2 10 4 10 3 0 8 -4 11 -10z"/>
<path d="M14390 5654 c-7 -19 -13 -41 -14 -47 -1 -7 -11 -28 -23 -47 -12 -19
-25 -48 -29 -65 l-7 -30 22 19 c11 11 21 25 21 33 0 7 3 13 8 13 11 0 34 58
28 69 -3 5 1 25 9 45 18 41 18 46 6 46 -5 0 -15 -16 -21 -36z"/>
<path d="M15110 5471 c0 -5 5 -13 10 -16 6 -3 10 -2 10 4 0 5 -4 13 -10 16 -5
3 -10 2 -10 -4z"/>
<path d="M9910 5285 c-41 -25 -105 -54 -142 -66 -38 -11 -68 -23 -68 -25 0 -6
61 2 82 11 9 4 21 4 26 1 6 -3 13 1 16 10 5 13 9 14 21 4 9 -7 18 -10 22 -6 3
3 1 6 -6 6 -7 0 -9 5 -5 11 4 8 9 8 17 0 18 -18 31 -13 16 6 -13 15 -12 15 10
4 13 -8 21 -9 17 -2 -7 11 22 45 63 73 50 34 5 16 -69 -27z"/>
<path d="M8620 5242 c-53 -33 -228 -136 -390 -229 -419 -242 -482 -287 -555
-398 -20 -29 -63 -71 -102 -100 -80 -58 -186 -156 -261 -240 -108 -120 -183
-279 -239 -509 l-34 -139 11 -176 c12 -186 21 -241 45 -261 16 -14 35 -5 35
16 0 8 4 22 9 32 34 62 51 140 61 284 5 84 17 185 26 223 23 98 79 215 165
341 88 128 173 216 278 286 42 28 103 77 137 109 127 121 234 86 326 -106 l43
-90 2 -145 3 -145 -20 37 c-32 60 -39 54 -34 -29 9 -139 14 -165 35 -170 10
-3 19 -10 19 -15 0 -5 -6 -6 -12 -2 -7 5 1 -8 17 -28 38 -46 55 -54 52 -25 -2
19 3 22 40 25 33 2 44 -1 57 -20 15 -21 17 -22 33 -5 16 16 18 40 17 235 -1
217 -2 217 -34 317 -36 108 -98 240 -137 292 -14 18 -49 47 -79 64 -30 17 -54
34 -54 39 0 4 69 45 153 90 83 46 218 120 299 166 80 46 153 84 162 84 9 0 16
3 16 8 0 4 18 18 41 32 47 29 89 101 89 154 0 37 1 36 -90 51 -30 5 -48 -2
-130 -53z m-940 -730 c0 -14 -29 -35 -118 -87 -46 -26 -109 -68 -140 -93 -39
-31 -49 -36 -32 -17 85 98 224 205 266 205 13 0 24 -4 24 -8z m510 -120 c13
-34 21 -65 18 -67 -3 -3 -15 23 -28 57 -34 95 -34 94 -23 83 6 -5 21 -38 33
-73z m-839 -135 c-10 -9 -11 -8 -5 6 3 10 9 15 12 12 3 -3 0 -11 -7 -18z m887
-229 c-1 -175 -3 -208 -16 -213 -13 -5 -14 4 -9 62 4 38 7 140 7 228 0 106 4
155 10 145 5 -9 9 -104 8 -222z m-1067 -59 c-5 -13 -10 -19 -10 -12 -1 15 10
45 15 40 3 -2 0 -15 -5 -28z m-32 -128 c-13 -50 -27 -91 -32 -91 -5 0 -6 8 -4
18 30 108 51 172 54 168 3 -2 -6 -45 -18 -95z m1211 -7 c0 -8 -4 -12 -10 -9
-5 3 -10 13 -10 21 0 8 5 12 10 9 6 -3 10 -13 10 -21z m-1234 -359 c8 -77 14
-151 14 -164 0 -23 -19 -56 -27 -48 -2 2 -5 98 -6 213 -2 115 -2 193 0 174 3
-19 11 -98 19 -175z"/>
<path d="M15730 5142 c0 -13 38 -45 48 -41 18 7 -7 49 -28 49 -11 0 -20 -4
-20 -8z"/>
<path d="M14825 5120 c-3 -5 1 -10 9 -10 8 0 18 5 21 10 3 6 -1 10 -9 10 -8 0
-18 -4 -21 -10z"/>
<path d="M15843 5078 c-33 -20 -42 -41 -23 -53 15 -9 94 37 98 58 5 23 -33 21
-75 -5z"/>
<path d="M8735 5050 c-3 -5 -2 -10 4 -10 5 0 13 5 16 10 3 6 2 10 -4 10 -5 0
-13 -4 -16 -10z"/>
<path d="M8612 4973 c-46 -36 -81 -68 -78 -70 6 -6 74 45 131 99 59 55 41 46
-53 -29z"/>
<path d="M15065 5018 c-22 -5 -59 -7 -83 -5 -38 4 -42 3 -37 -14 5 -15 -1 -19
-32 -24 -64 -11 -124 -33 -159 -60 -18 -14 -47 -28 -64 -31 -37 -8 -38 -26 -5
-52 14 -11 25 -29 25 -41 0 -12 4 -21 8 -21 14 0 31 22 26 34 -3 7 13 12 42
14 28 2 60 13 84 28 22 15 51 25 67 24 50 -4 64 0 70 18 4 9 31 42 60 72 50
51 63 71 46 69 -5 -1 -26 -5 -48 -11z m-315 -174 c0 -8 -5 -12 -10 -9 -6 4 -8
11 -5 16 9 14 15 11 15 -7z"/>
<path d="M14670 4939 c0 -5 5 -7 10 -4 6 3 10 8 10 11 0 2 -4 4 -10 4 -5 0
-10 -5 -10 -11z"/>
<path d="M14540 4832 c-27 -12 -90 -67 -90 -78 0 -6 14 -11 32 -11 30 0 73 36
101 83 9 15 -15 18 -43 6z"/>
<path d="M11175 4604 c-44 -36 -100 -84 -124 -106 -24 -22 -65 -56 -92 -75
-27 -19 -49 -39 -49 -45 0 -5 -5 -6 -12 -2 -6 4 -8 3 -5 -3 4 -6 -6 -16 -21
-23 -21 -10 -23 -14 -10 -17 20 -5 70 36 61 50 -3 6 -1 7 5 3 7 -4 22 3 34 16
13 13 54 50 93 83 159 137 212 184 205 184 -3 1 -41 -29 -85 -65z"/>
<path d="M9156 4373 c21 -32 57 -91 82 -131 49 -81 68 -93 25 -16 -30 54 -132
204 -139 204 -3 0 12 -26 32 -57z"/>
<path d="M10835 4309 c-5 -6 -37 -36 -70 -66 l-60 -55 78 62 c42 34 77 63 77
66 0 7 -15 3 -25 -7z"/>
<path d="M9300 4140 c6 -11 13 -20 16 -20 2 0 0 9 -6 20 -6 11 -13 20 -16 20
-2 0 0 -9 6 -20z"/>
<path d="M8336 3628 c-3 -13 -6 -61 -6 -108 -1 -47 -5 -107 -9 -135 -5 -30 -5
-60 1 -75 10 -24 10 -24 18 -4 12 31 22 344 11 344 -5 0 -11 -10 -15 -22z"/>
<path d="M8252 3460 c0 -14 2 -19 5 -12 2 6 2 18 0 25 -3 6 -5 1 -5 -13z"/>
<path d="M9747 3408 c44 -77 39 -71 53 -63 7 4 4 15 -10 32 -11 14 -20 32 -20
39 0 16 -35 54 -50 54 -5 0 7 -28 27 -62z"/>
<path d="M8253 3395 c0 -22 2 -30 4 -17 2 12 2 30 0 40 -3 9 -5 -1 -4 -23z"/>
<path d="M8245 3330 c-3 -5 1 -10 9 -10 8 0 18 5 21 10 3 6 -1 10 -9 10 -8 0
-18 -4 -21 -10z"/>
<path d="M1755 3144 c-41 -14 -120 -72 -111 -81 2 -2 19 3 38 13 30 16 68 17
483 10 637 -9 663 -11 695 -56 36 -51 25 -54 -164 -45 -94 5 -283 9 -421 10
-137 1 -260 4 -272 9 -13 4 -31 2 -43 -4 -22 -12 -246 -18 -257 -7 -9 10 -35
8 -29 -2 3 -4 -12 -5 -34 -1 -38 7 -40 6 -51 -28 -23 -70 -2 -134 143 -447
192 -410 382 -827 410 -900 9 -22 27 -68 41 -103 25 -62 26 -91 3 -93 -6 0 -2
-4 10 -9 12 -5 26 -25 34 -51 7 -24 22 -63 33 -87 15 -32 17 -46 8 -55 -15
-15 -14 -27 3 -21 9 3 16 -5 20 -22 4 -15 17 -41 28 -57 l20 -28 -23 -25 c-26
-27 -17 -31 25 -9 39 21 44 12 12 -25 -14 -18 -24 -36 -21 -41 3 -5 -3 -38
-15 -75 -11 -36 -20 -81 -20 -100 0 -19 -4 -34 -8 -34 -5 0 -16 -23 -25 -52
l-16 -52 37 -32 c43 -39 41 -38 67 -16 27 23 37 46 78 187 42 142 51 191 48
268 -1 46 4 66 24 101 15 25 25 58 25 80 0 21 5 47 12 59 7 12 13 68 14 127 2
99 10 140 45 227 11 26 11 44 0 96 -12 63 -12 66 18 135 17 39 31 75 31 80 0
16 70 96 97 110 13 7 36 12 51 10 25 -3 27 -6 25 -43 -1 -22 -9 -53 -17 -70
-9 -16 -16 -39 -16 -50 0 -11 -7 -42 -15 -68 -13 -44 -13 -52 1 -79 16 -32 14
-88 -7 -154 -7 -22 -5 -42 6 -73 16 -47 14 -58 -19 -72 -18 -8 -16 -9 12 -6
34 4 71 -22 45 -30 -25 -9 -13 -39 22 -56 55 -26 21 -66 -65 -77 -41 -4 -45
-8 -48 -34 -4 -31 -3 -31 81 -10 39 9 34 -9 -13 -40 -25 -17 -53 -26 -78 -26
-21 0 -41 -3 -45 -6 -3 -4 19 -31 49 -61 29 -30 54 -60 54 -68 0 -19 -77 -24
-101 -7 -11 8 -23 12 -26 8 -9 -9 24 -36 71 -57 57 -25 67 -40 24 -35 -41 4
-58 -2 -58 -21 0 -11 7 -13 25 -9 18 5 25 2 25 -8 0 -7 -8 -16 -19 -19 -13 -3
-20 -18 -25 -53 -13 -93 -18 -114 -28 -114 -12 0 -68 120 -68 148 0 30 -18 28
-26 -3 -12 -48 5 -110 41 -151 34 -38 34 -38 12 -49 -18 -10 -26 -9 -43 7 -11
10 -23 18 -27 18 -24 0 13 -96 82 -214 16 -27 32 -66 35 -86 11 -72 88 -116
229 -131 50 -5 126 -20 170 -34 l79 -25 46 41 c26 23 66 52 89 66 30 18 49 38
63 70 17 39 54 82 71 83 4 0 10 -10 14 -22 6 -23 6 -23 16 4 6 15 31 40 57 56
45 28 124 100 167 152 11 14 35 36 53 49 18 13 35 35 38 47 3 12 15 31 26 41
20 18 20 17 12 -22 -12 -55 -9 -137 5 -163 14 -26 79 -62 109 -59 13 1 22 10
25 25 3 18 1 22 -12 17 -31 -12 -35 -10 -46 23 -10 30 -13 32 -27 19 -13 -13
-16 -13 -25 2 -39 63 -22 115 96 293 49 75 73 94 144 119 56 19 64 12 53 -46
-6 -29 -3 -36 16 -48 46 -30 67 -30 103 -3 18 14 38 26 43 26 12 0 24 29 16
41 -7 12 -54 12 -54 0 0 -5 6 -11 12 -13 9 -3 8 -9 -5 -22 -9 -10 -22 -14 -29
-10 -7 4 -24 7 -39 6 -43 -3 -53 20 -24 54 25 29 44 64 64 118 6 15 20 30 31
33 34 9 22 21 -12 13 -52 -12 -136 -64 -169 -104 -9 -11 -21 -16 -27 -12 -11
6 -72 126 -72 140 0 3 -18 44 -40 91 -22 47 -40 88 -40 91 0 2 -34 82 -76 177
-42 94 -100 228 -129 297 -29 69 -78 181 -108 250 -110 254 -251 577 -283 653
-67 159 -134 241 -239 292 l-59 29 -336 7 c-560 12 -859 10 -905 -7z m1136
-2113 c-30 -30 -39 -26 -11 4 13 14 25 23 28 21 2 -2 -6 -14 -17 -25z m-41
-31 c0 -5 -7 -10 -16 -10 -8 0 -12 5 -9 10 3 6 10 10 16 10 5 0 9 -4 9 -10z
m-125 -280 c-3 -4 -21 -8 -40 -7 -19 1 -30 4 -24 7 15 10 70 10 64 0z m-390
-59 c3 -5 1 -12 -4 -15 -5 -3 -11 1 -15 9 -6 16 9 21 19 6z"/>
<path d="M7210 2800 c0 -5 7 -7 15 -4 8 4 15 8 15 10 0 2 -7 4 -15 4 -8 0 -15
-4 -15 -10z"/>
<path d="M7285 2780 c3 -5 8 -10 11 -10 2 0 4 5 4 10 0 6 -5 10 -11 10 -5 0
-7 -4 -4 -10z"/>
<path d="M8036 1865 c-3 -9 -6 -22 -5 -28 0 -7 5 -1 10 12 5 13 8 26 5 28 -2
2 -6 -3 -10 -12z"/>
<path d="M7991 1704 c0 -11 3 -14 6 -6 3 7 2 16 -1 19 -3 4 -6 -2 -5 -13z"/>
<path d="M7972 1668 c-7 -7 -12 -23 -12 -35 0 -13 -7 -35 -16 -48 -9 -14 -14
-25 -10 -25 3 0 -3 -15 -14 -32 -26 -43 -26 -58 0 -25 20 25 74 166 67 174 -2
1 -9 -3 -15 -9z"/>
<path d="M8704 1628 c-3 -4 -3 -12 1 -17 3 -5 1 -12 -5 -16 -17 -10 -12 -20
21 -39 29 -17 31 -17 50 0 25 22 24 51 -1 59 -11 3 -20 10 -20 15 0 11 -40 9
-46 -2z"/>
<path d="M8489 1463 c-8 -9 -62 -58 -122 -109 -113 -99 -207 -166 -245 -179
-13 -4 -21 -9 -19 -11 9 -9 76 24 123 60 26 20 52 36 59 36 21 0 106 71 99 82
-4 6 -2 8 4 4 6 -3 41 19 79 51 37 31 70 58 73 60 5 4 -21 23 -31 23 -4 0 -13
-7 -20 -17z"/>
<path d="M7867 1358 c-15 -22 -16 -22 -17 -3 0 13 -12 0 -36 -39 -60 -100
-123 -175 -200 -238 -41 -34 -74 -62 -74 -63 0 -7 80 39 91 51 6 8 16 14 22
14 10 0 36 22 123 106 l43 40 3 -25 c2 -18 9 -26 23 -26 11 0 21 -8 23 -18 3
-16 22 -25 22 -9 0 4 12 15 28 25 l27 17 -25 -5 c-39 -9 -83 11 -75 34 3 11 1
22 -5 26 -7 4 -5 15 5 33 17 32 45 102 41 102 -2 0 -11 -10 -19 -22z m-179
-238 c-7 -11 -17 -20 -22 -20 -5 0 -1 9 9 20 10 11 20 20 22 20 2 0 -2 -9 -9
-20z"/>
<path d="M2160 1326 c0 -14 5 -26 10 -26 6 0 10 9 10 19 0 11 -4 23 -10 26 -6
4 -10 -5 -10 -19z"/>
<path d="M13477 1264 c-11 -12 -8 -136 8 -299 8 -82 19 -287 25 -455 5 -168
13 -352 16 -409 l7 -103 68 4 c44 4 73 11 84 22 26 25 62 24 84 -2 12 -16 13
-15 7 3 -4 11 -11 38 -16 60 -19 88 -54 194 -62 189 -5 -3 -6 6 -2 20 4 16 2
26 -5 26 -6 0 -10 3 -9 8 1 4 -4 23 -11 42 -8 19 -13 39 -12 44 4 19 -11 66
-20 61 -5 -4 -6 1 -3 10 3 8 3 27 -1 43 l-8 27 -8 -25 c-7 -20 -8 -17 -4 13 2
22 0 46 -5 55 -5 10 -15 39 -24 67 -11 38 -12 51 -3 57 8 5 6 8 -7 8 -15 0
-16 3 -6 15 10 12 10 15 -4 15 -22 0 -21 20 2 21 14 0 14 2 2 7 -8 4 -16 16
-17 27 -3 33 -20 120 -23 120 -7 0 -30 189 -31 250 0 54 -10 90 -22 79z m188
-933 c3 -5 1 -12 -5 -16 -5 -3 -10 1 -10 9 0 18 6 21 15 7z m22 -183 c-3 -8
-6 -5 -6 6 -1 11 2 17 5 13 3 -3 4 -12 1 -19z m62 -57 c-1 -13 -2 -13 -6 2 -2
9 -9 17 -14 17 -5 0 -9 5 -9 11 0 8 5 8 15 -1 8 -7 14 -20 14 -29z"/>
<path d="M4342 1230 c2 -26 11 -40 37 -57 67 -45 70 -18 5 47 l-45 45 3 -35z"/>
<path d="M4343 1126 c4 -10 7 -22 7 -27 0 -5 8 -9 18 -9 9 -1 34 -7 55 -14 40
-15 52 -8 42 23 -4 14 -18 20 -48 23 -23 3 -51 8 -61 13 -16 7 -18 5 -13 -9z"/>
<path d="M7485 985 c-22 -13 -35 -24 -30 -25 12 0 75 37 75 45 0 8 -2 7 -45
-20z"/>
<path d="M2530 985 c0 -20 17 -28 23 -11 3 8 -1 17 -9 20 -8 3 -14 -1 -14 -9z"/>
<path d="M4359 978 c-15 -11 -47 -23 -73 -25 -25 -3 -46 -8 -46 -12 0 -3 -32
-7 -70 -9 -63 -3 -71 -1 -78 17 -5 14 -11 18 -22 11 -12 -7 -12 -13 -1 -33 7
-14 10 -34 7 -45 -4 -11 -2 -23 4 -27 5 -3 10 -11 10 -17 0 -6 -2 -9 -5 -6 -9
9 -89 -12 -97 -25 -4 -6 -15 -12 -25 -12 -29 0 -29 -65 0 -128 14 -28 28 -63
32 -77 4 -14 14 -33 23 -42 14 -16 14 -18 -1 -18 -16 0 -57 50 -57 70 0 6 -11
0 -24 -14 -17 -19 -34 -26 -60 -26 -20 0 -36 4 -36 9 0 5 -15 11 -32 14 -30 4
-39 -1 -89 -52 -31 -31 -62 -67 -68 -79 -7 -13 -28 -30 -47 -38 -33 -14 -53
-38 -41 -51 4 -3 27 -5 52 -5 27 1 45 -3 45 -10 0 -20 -83 -88 -108 -88 -13 0
-35 -9 -48 -19 -14 -11 -50 -23 -80 -27 -54 -6 -90 -27 -79 -45 4 -5 12 -9 20
-9 21 0 28 -50 10 -70 -8 -9 -13 -24 -9 -33 4 -11 0 -19 -10 -23 -9 -3 -16
-12 -16 -20 0 -12 78 -14 490 -14 479 0 490 0 502 20 7 11 18 20 25 20 16 0
17 16 2 26 -8 4 -2 12 15 21 14 7 26 21 27 31 2 50 8 65 36 95 43 45 52 67 57
137 2 34 7 64 9 67 3 3 18 -7 34 -21 l28 -26 3 25 c4 27 -21 74 -62 118 -14
15 -20 29 -15 32 5 4 9 1 9 -4 0 -6 9 -11 20 -11 11 0 20 5 20 10 0 6 -7 10
-15 10 -8 0 -15 5 -15 11 0 17 -40 0 -76 -33 -18 -17 -41 -50 -51 -74 -10 -24
-21 -44 -25 -44 -4 0 -27 39 -51 86 l-44 87 -27 -47 c-27 -46 -66 -64 -66 -31
0 9 6 15 13 14 37 -6 52 19 61 102 1 15 15 41 29 59 26 31 38 78 16 65 -6 -4
-8 -12 -6 -19 3 -6 -2 -21 -10 -31 -12 -17 -15 -18 -23 -5 -8 12 -10 11 -10
-7 0 -18 -6 -23 -25 -23 -15 0 -25 6 -25 14 0 8 -11 23 -25 34 -32 25 -31 36
6 116 33 70 64 100 72 68 4 -13 5 -12 6 5 1 16 10 23 34 28 17 4 37 10 42 14
6 3 30 13 54 21 25 8 46 20 48 26 6 19 -40 13 -68 -8z m-249 -102 c0 -3 -4 -8
-10 -11 -5 -3 -10 -1 -10 4 0 6 5 11 10 11 6 0 10 -2 10 -4z m5 -77 c-4 -5
-13 -9 -21 -9 -12 0 -12 2 -2 14 14 15 32 11 23 -5z m95 -243 c0 -15 -18 -31
-26 -23 -7 7 7 37 17 37 5 0 9 -6 9 -14z m-127 -60 c4 -10 1 -13 -8 -9 -8 3
-12 9 -9 14 7 12 11 11 17 -5z m89 -9 c15 -12 15 -14 -3 -25 -25 -16 -30 -15
-22 4 5 13 2 15 -15 9 -12 -3 -22 -2 -22 3 0 24 35 29 62 9z m-442 -97 c0 -5
-4 -10 -10 -10 -5 0 -10 5 -10 10 0 6 5 10 10 10 6 0 10 -4 10 -10z m170 -210
c0 -5 -5 -10 -11 -10 -5 0 -7 5 -4 10 3 6 8 10 11 10 2 0 4 -4 4 -10z"/>
<path d="M4265 850 c-3 -5 -1 -10 4 -10 6 0 11 5 11 10 0 6 -2 10 -4 10 -3 0
-8 -4 -11 -10z"/>
<path d="M4520 571 c0 -5 8 -10 18 -10 9 0 24 -1 32 -3 8 -2 17 2 20 7 3 6
-12 11 -32 13 -21 2 -38 -1 -38 -7z"/>
<path d="M2316 445 c-9 -26 -7 -32 5 -12 6 10 9 21 6 23 -2 3 -7 -2 -11 -11z"/>
<path d="M10592 280 c0 -14 2 -19 5 -12 2 6 2 18 0 25 -3 6 -5 1 -5 -13z"/>
<path d="M10587 234 c-4 -4 -7 -14 -7 -23 0 -11 3 -12 11 -4 6 6 10 16 7 23
-2 6 -7 8 -11 4z"/>
<path d="M10546 168 c-19 -37 -20 -41 -5 -32 8 4 8 0 0 -15 -7 -12 -9 -26 -6
-32 4 -5 2 -15 -3 -22 -11 -13 -12 -17 -12 -43 0 -8 -4 -12 -10 -9 -5 3 -10 1
-10 -4 0 -6 11 -11 24 -11 19 0 25 7 31 37 8 38 15 163 9 163 -1 0 -10 -14
-18 -32z"/>
<path d="M4392 18 c7 -19 38 -22 38 -4 0 10 -9 16 -21 16 -12 0 -19 -5 -17
-12z"/>
<path d="M4853 3 c15 -2 37 -2 50 0 12 2 0 4 -28 4 -27 0 -38 -2 -22 -4z"/>
<path d="M13708 3 c6 -2 18 -2 25 0 6 3 1 5 -13 5 -14 0 -19 -2 -12 -5z"/>
</g>
</svg>
